<?xml version="1.0" standalone="no"?>
<!DOCTYPE svg PUBLIC "-//W3C//DTD SVG 20010904//EN"
 "http://www.w3.org/TR/2001/REC-SVG-20010904/DTD/svg10.dtd">
<svg version="1.0" xmlns="http://www.w3.org/2000/svg"
 width="759.000000pt" height="563.000000pt" viewBox="0 0 759.000000 563.000000"
 preserveAspectRatio="xMidYMid meet">

<g transform="translate(0.000000,563.000000) scale(0.100000,-0.100000)"
fill="#000000" stroke="none">
<path d="M16 5608 c-14 -20 -16 -304 -16 -2815 l0 -2793 3795 0 3795 0 0 2815
0 2815 -3779 0 -3780 0 -15 -22z m4177 -2466 l207 -207 -68 -68 -67 -67 -135
135 c-74 74 -139 135 -145 135 -5 0 -71 -61 -145 -135 l-135 -135 -70 70 -70
70 205 205 c113 113 207 205 210 205 3 0 99 -93 213 -208z m-1883 -397 c0
-504 -2 -575 -15 -575 -13 0 -15 71 -15 575 0 504 2 575 15 575 13 0 15 -71
15 -575z m950 564 c0 -12 -342 -568 -350 -569 -5 0 -350 551 -358 572 -2 4
156 8 352 8 248 0 356 -3 356 -11z m275 -565 c0 -499 -2 -569 -15 -569 -13 0
-15 70 -18 560 -1 308 0 566 3 573 3 8 11 12 18 9 9 -3 12 -127 12 -573z
m1681 549 c34 -11 67 -35 110 -77 74 -75 94 -125 94 -240 0 -66 -5 -91 -26
-136 -34 -73 -86 -126 -159 -161 -59 -28 -64 -29 -225 -29 -198 -1 -236 -8
-272 -52 -26 -30 -28 -38 -28 -130 l0 -98 213 0 c196 0 215 2 245 20 21 13 40
36 49 60 l16 40 95 0 95 0 -5 -44 c-12 -99 -82 -193 -181 -240 l-56 -26 -336
0 -336 0 3 213 c3 209 3 213 31 269 30 62 83 115 149 150 39 20 61 23 243 28
121 3 208 10 220 17 96 54 99 197 4 245 -28 15 -61 18 -187 18 -107 0 -162 -4
-186 -14 -37 -16 -76 -60 -76 -87 0 -17 -9 -19 -101 -19 l-102 0 7 42 c19 117
100 213 215 254 58 21 423 19 487 -3z m-2503 -621 c143 -229 197 -309 204
-300 6 7 93 146 193 308 100 162 186 299 191 305 5 5 9 -161 9 -403 l0 -412
-400 0 -400 0 0 412 c0 226 2 409 4 407 2 -2 92 -145 199 -317z"/>
</g>
</svg>
